<svg id="Capa_1" enable-background="new 0 0 512.016 512.016" height="512" viewBox="0 0 512.016 512.016" width="512" xmlns="http://www.w3.org/2000/svg"><g><path d="m114.792 130.298c-19.753-23.411-29.084-67.524-13.706-105.054 4.955-12.093 21.3-14.006 28.982-3.433 16.785 23.103 38.447 42.675 68.437 47.534z" fill="#fbf1cf"/><path d="m397.206 130.298c19.753-23.411 29.084-67.524 13.706-105.054-4.955-12.093-21.3-14.006-28.982-3.433-16.785 23.103-38.447 42.675-68.437 47.534z" fill="#fbf1cf"/><g fill="#e7889d"><path d="m125.734 222.062c0-29.801-43.815-94.936-75.766-94.936-31.95 0-45.057 64.611-42.05 94.936 2.94 29.656 28.014 53.96 59.965 53.96 31.95 0 57.851-24.159 57.851-53.96z"/><path d="m386.264 222.062c0-29.801 43.815-94.936 75.766-94.936s45.057 64.611 42.051 94.936c-2.94 29.656-28.014 53.96-59.965 53.96s-57.852-24.159-57.852-53.96z"/><path d="m398.889 497.118c21.006 0 36.832-19.448 32.179-39.932-18.155-79.93-89.644-139.594-175.069-139.594-85.424 0-156.914 59.664-175.069 139.594-4.653 20.484 11.173 39.932 32.179 39.932z"/></g><path d="m377.958 365.387c-32.021-29.66-74.87-47.795-121.959-47.795s-89.938 18.135-121.959 47.795c35.178 19.178 77.389 29.512 121.959 29.512 44.57-.001 86.781-10.334 121.959-29.512z" fill="#e16e7e"/><path d="m359.288 47.063c-12.757 11.122-27.77 19.361-45.795 22.281l83.713 60.953c9.232-10.941 16.185-26.406 19.406-43.605-16.448-15.954-35.863-29.355-57.324-39.629z" fill="#fae0bd"/><path d="m114.792 130.297 83.713-60.953c-18.024-2.92-33.038-11.159-45.795-22.281-21.461 10.274-40.876 23.674-57.324 39.629 3.221 17.2 10.174 32.664 19.406 43.605z" fill="#fae0bd"/><path d="m437.363 214.758c0-86.104-81.2-155.904-181.364-155.904s-181.364 69.8-181.364 155.904 81.2 145.141 181.364 145.141 181.364-59.037 181.364-145.141z" fill="#eda1ab"/><path d="m255.999 39.299c-50.235 0-85.45 23.807-99.036 48.251-6.092 10.962 2.203 24.42 14.739 24.063 14.939-.425 34.148-2.117 49.031-4.965 2.512 15.862 12.105 31.196 25.191 41.458 5.914 4.638 14.233 4.638 20.148 0 13.086-10.263 22.679-25.596 25.191-41.458 14.883 2.848 34.093 4.54 49.032 4.965 12.536.357 20.832-13.1 14.739-24.063-13.585-24.444-48.8-48.251-99.035-48.251z" fill="#565e75"/><path d="m295.297 337.264c0-19.042-17.594-34.478-39.297-34.478s-39.298 15.436-39.298 34.478 25.46 60.19 39.298 60.19c13.837.001 39.297-41.148 39.297-60.19z" fill="#565e75"/><g><g><ellipse cx="175.191" cy="235.098" fill="#fff" rx="29.816" ry="23.744"/><ellipse cx="336.807" cy="235.098" fill="#fff" rx="29.816" ry="23.744"/><path d="m290.852 219.963c0-15.073-15.604-16.489-34.853-16.489s-34.853 1.416-34.853 16.489c0 15.072 15.604 27.291 34.853 27.291s34.853-12.218 34.853-27.291z" fill="#565e75"/></g></g><path d="m319.43 192.646c-4.143 0-7.5 3.357-7.5 7.5v12c0 4.143 3.357 7.5 7.5 7.5s7.5-3.357 7.5-7.5v-12c0-4.142-3.358-7.5-7.5-7.5zm142.6-73.021c-14.107 0-27.863 9.484-38.523 19.595-3.285-5.451-6.799-10.654-11.761-16.898 8.702-15.422 13.878-34.829 14.314-54.169.094-4.141-3.188-7.573-7.329-7.667-4.126-.046-7.573 3.187-7.667 7.329-.339 15.001-3.882 29.966-9.905 42.427-12.607-13.085-27.548-24.465-44.234-33.607-2.788-3.843-6.121-7.704-9.993-11.465 14.787-8.55 28.303-21.385 41.065-38.951 4.227-5.816 13.24-4.805 15.975 1.869.88 2.146 1.693 4.373 2.417 6.621 1.272 3.942 5.497 6.105 9.44 4.838 3.942-1.271 6.108-5.497 4.838-9.439-.843-2.613-1.79-5.207-2.814-7.708-7.185-17.531-30.841-20.344-41.989-4.997-12.959 17.835-26.546 30.111-41.418 37.429-18.562-13.104-44.809-23.032-78.447-23.032s-59.885 9.929-78.446 23.032c-14.873-7.318-28.46-19.595-41.417-37.429-11.142-15.335-34.803-12.542-41.99 4.997-14.787 36.089-7.871 75.118 6.097 99.934-4.941 6.218-8.478 11.453-11.753 16.886-10.659-10.111-24.416-19.595-38.522-19.595-9.447 0-18.002 4.156-25.427 12.353-19.461 21.486-26.493 66.552-24.087 90.824 4.082 41.173 43.715 68.682 84.061 58.691 15.103 26.627 38.53 47.13 65.787 61.332-38.644 26.539-66.29 66.93-76.686 112.699-5.709 25.132 13.619 49.094 39.493 49.094h13.489c4.142 0 7.5-3.357 7.5-7.5s-3.358-7.5-7.5-7.5h-13.489c-16.285 0-28.433-15.063-24.866-30.771 10.226-45.017 38.606-84.382 78.106-108.558 15.759 6.517 32.805 11.3 50.629 14.102 6.861 14.33 23.287 40.565 39.02 40.565 15.764 0 32.176-26.268 39.02-40.565 17.824-2.802 34.869-7.584 50.629-14.102 39.5 24.176 67.88 63.541 78.107 108.558 3.563 15.688-8.565 30.771-24.866 30.771h-236.628c-4.142 0-7.5 3.357-7.5 7.5s3.358 7.5 7.5 7.5h236.629c25.875 0 45.202-23.965 39.493-49.094-10.397-45.769-38.042-86.161-76.686-112.699 27.256-14.202 50.684-34.704 65.787-61.332 40.32 9.983 79.977-17.495 84.062-58.692 3.347-33.773-10.924-103.176-49.515-103.176zm-265.745-58.758c35.03-18.803 84.467-18.765 119.429 0 16.142 8.664 26.995 19.944 32.765 30.326 3.286 5.911-1.295 13.15-7.97 12.923-12.822-.365-32.122-1.827-47.835-4.835-4.157-.799-8.156 2.011-8.817 6.193-2.169 13.693-10.547 27.425-22.411 36.729-3.206 2.516-7.686 2.515-10.892.001-11.865-9.306-20.243-23.036-22.412-36.73-.666-4.212-4.69-6.986-8.817-6.193-15.714 3.008-35.014 4.47-47.835 4.835-6.741.194-11.234-7.049-7.97-12.922 5.767-10.379 16.616-21.66 32.765-30.327zm-88.26-32.78c2.726-6.653 11.736-7.702 15.974-1.868 12.762 17.566 26.279 30.401 41.066 38.951-3.871 3.76-7.204 7.621-9.992 11.464-16.687 9.143-31.628 20.523-44.236 33.609-11.534-23.843-13.725-55.524-2.812-82.156zm-63.44 170.623c7.648 2.977 15.564 7.461 22.611 12.771-.461 19.911 3.109 38.706 10.485 56.148-30.72 5.618-59.263-15.669-62.3-46.307-2.835-28.6 10.05-86.696 34.587-86.696 8.422 0 19.61 6.653 31.134 18.378-6.209 13.19-10.4 27.07-12.466 41.247-6.04-3.835-12.392-7.099-18.609-9.519-3.861-1.502-8.207.409-9.71 4.268-1.503 3.86.409 8.207 4.268 9.71zm230.167 171.383c-9.236 14.574-16.757 19.742-18.737 19.862-2.013-.12-9.533-5.288-18.769-19.862-7.681-12.119-13.045-25.618-13.045-32.828 0-14.876 14.264-26.979 31.797-26.979s31.798 12.103 31.798 26.979c.001 7.209-5.363 20.709-13.044 32.828zm26.452-22.036c.997-3.805 1.593-7.469 1.593-10.792 0-23.147-20.993-41.979-46.798-41.979-25.804 0-46.797 18.831-46.797 41.979 0 3.323.596 6.987 1.593 10.792-70.194-13.881-128.66-61.643-128.66-133.299 0-47.528 25.904-89.158 65.522-116.04 1.665 11.338 11.494 20.749 24.26 20.392 11.523-.328 28.094-1.513 43.056-3.855 4.186 14.738 13.672 28.831 26.325 38.754 8.656 6.787 20.746 6.786 29.405-.001 12.65-9.922 22.138-24.017 26.323-38.752 14.962 2.342 31.532 3.526 43.057 3.854 12.851.359 22.607-9.137 24.26-20.392 39.137 26.556 65.521 68.017 65.521 116.039-.001 71.715-58.514 119.427-128.66 133.3zm195.413-126.736c-3.045 30.706-31.648 51.912-62.301 46.307 7.323-17.318 10.947-36.09 10.485-56.147 7.047-5.31 14.963-9.794 22.61-12.771 3.86-1.503 5.771-5.851 4.268-9.71-1.504-3.861-5.85-5.772-9.71-4.268-6.216 2.42-12.568 5.684-18.608 9.519-2.067-14.178-6.257-28.057-12.467-41.247 11.525-11.725 22.713-18.378 31.134-18.378 24.377-.001 37.469 57.649 34.589 86.695zm-291.003-43.681-21.125-3.726c-4.079-.725-7.969 2.004-8.689 6.083-.719 4.079 2.004 7.97 6.083 8.689l21.124 3.726c4.05.718 7.965-1.98 8.689-6.083.721-4.08-2.003-7.971-6.082-8.689zm77.537 21.358c-7.072-2.509-15.969-3.023-27.152-3.023s-20.08.515-27.152 3.023c-12.563 4.458-15.2 13.861-15.2 20.965 0 19.185 18.999 34.792 42.353 34.792 23.353 0 42.353-15.607 42.353-34.792-.001-7.104-2.638-16.507-15.202-20.965zm-27.152 40.757c-14.827 0-27.353-9.064-27.353-19.792 0-5.093 2.014-8.988 27.353-8.988s27.352 3.895 27.352 8.988c.001 10.728-12.526 19.792-27.352 19.792zm-63.431-47.109c-4.142 0-7.5 3.357-7.5 7.5v12c0 4.143 3.358 7.5 7.5 7.5s7.5-3.357 7.5-7.5v-12c0-4.142-3.358-7.5-7.5-7.5zm134.941-18.732-21.124 3.726c-4.079.719-6.803 4.609-6.083 8.688.723 4.099 4.634 6.802 8.689 6.083l21.124-3.726c4.079-.719 6.803-4.609 6.083-8.689-.719-4.078-4.61-6.804-8.689-6.082z"/></g></svg>