<svg id="Layer_1" enable-background="new 0 0 512 512" height="512" viewBox="0 0 512 512" width="512" xmlns="http://www.w3.org/2000/svg"><g><g><path d="m407.819 337.946s-156.736 120.858-400.318 166.551c.559-2.963 1.124-5.918 1.711-8.853 20.548-104.071 54.503-192.02 86.21-258.049 17.805-37.094 34.917-67.273 48.543-89.498 17.571-28.687 29.331-44.137 29.331-44.137l173.897 52.827 47.559 142.113z" fill="#ffe36c"/><path d="m407.819 337.946s-156.736 120.858-400.318 166.551c.559-2.963 1.124-5.918 1.711-8.853 228.245-62.02 348.537-161.65 385.54-196.744z" fill="#ffc46e"/><path d="m504.501 311.097s-37.533 29.217-96.689 26.856c-2.998-8.259-8.789-20.937-17.501-36.366-15.973-28.319-41.768-65.866-78.156-102.169-56.222-56.094-115.406-86.966-138.853-95.451-2.369-59.022 26.919-96.47 26.919-96.47 3.705 1.301 91.683 32.767 181.562 122.449 57.572 57.445 91.202 114.112 108.293 148.399 9.589 19.232 13.958 31.423 14.425 32.752z" fill="#fab684"/><path d="m504.501 311.097s-37.533 29.217-96.689 26.856c-2.998-8.259-8.789-20.937-17.501-36.366 40.185-2.708 77.414-14.637 99.765-23.242 9.589 19.232 13.958 31.423 14.425 32.752z" fill="#f79e60"/><path d="m144.841 419.043c-19.587 0-36.592-11.009-45.134-27.16-3.748-7.085-5.869-15.16-5.869-23.73-.007-28.107 22.832-50.89 51.003-50.89 8.584 0 16.674 2.121 23.78 5.862 16.193 8.528 27.223 25.498 27.223 45.028-.007 28.108-22.832 50.89-51.003 50.89z" fill="#ff7878"/><path d="m144.841 419.043c-19.587 0-36.592-11.009-45.134-27.16 19.282 10.303 43.762 7.347 59.983-8.874 16.2-16.2 19.17-40.623 8.931-59.884 16.193 8.528 27.223 25.498 27.223 45.028-.007 28.108-22.832 50.89-51.003 50.89z" fill="#f4536f"/><path d="m271.066 329.079c-12.869 0-24.289-6.173-31.445-15.705-4.9-6.541-7.806-14.665-7.806-23.447 0-21.637 17.571-39.166 39.251-39.166 8.782 0 16.9 2.885 23.447 7.75 9.588 7.142 15.797 18.554 15.797 31.409 0 21.623-17.578 39.159-39.244 39.159z" fill="#ff7878"/><path d="m271.066 329.079c-12.869 0-24.289-6.173-31.445-15.705 14.389 1.209 29.189-3.691 40.192-14.694 10.995-10.995 15.903-25.788 14.701-40.17 9.588 7.142 15.797 18.554 15.797 31.409-.001 21.624-17.579 39.16-39.245 39.16z" fill="#f4536f"/><path d="m118.558 243.124c-8.33 0-16.2-1.987-23.136-5.53.947-1.966 1.888-3.91 2.821-5.833 15.026-30.823 29.444-56.639 41.556-76.812 1.428-2.362 2.807-4.646 4.165-6.852 15.302 8.782 25.597 25.258 25.597 44.137.001 28.1-22.832 50.89-51.003 50.89z" fill="#ff7878"/><path d="m118.558 243.124c-8.33 0-16.2-1.987-23.136-5.53.947-1.966 1.888-3.91 2.821-5.833 27.103-1.209 48.691-23.518 48.691-50.841 0-9.489-2.602-18.371-7.135-25.972 1.428-2.362 2.807-4.646 4.165-6.852 15.302 8.782 25.597 25.258 25.597 44.137.001 28.101-22.832 50.891-51.003 50.891z" fill="#f4536f"/></g><g><path d="m511.575 308.609c-.828-2.353-8.607-23.909-26.628-55.91-2.032-3.61-6.606-4.888-10.215-2.855-3.609 2.032-4.888 6.606-2.855 10.215 12.721 22.59 20.194 39.907 23.507 48.187-10.701 6.761-39.815 22.346-80.783 22.346-.529 0-1.062-.003-1.595-.008-10.812-26.516-41.908-82.948-95.555-136.476-11.591-11.565-23.992-22.743-36.858-33.225-3.214-2.617-7.936-2.133-10.552 1.077-2.616 3.212-2.134 7.936 1.077 10.552 12.479 10.165 24.502 21.004 35.738 32.215 51.505 51.391 81.332 105.038 91.889 130.611-8.765 6.345-30.129 21.216-62.16 39.706-3.588 2.07-4.817 6.657-2.746 10.244 1.389 2.407 3.91 3.752 6.502 3.752 1.272 0 2.562-.324 3.742-1.006 36.65-21.156 59.3-37.427 66.141-42.503 1.499.037 2.988.063 4.461.063 57.031 0 92.864-27.364 94.421-28.576 2.545-1.983 3.539-5.367 2.469-8.409z"/><path d="m306.788 391.548c-63.367 33.696-164.425 78.534-289.811 103.481 7.404-37.073 16.977-74.304 28.502-110.832 1.246-3.95-.945-8.163-4.896-9.409-3.949-1.247-8.163.945-9.409 4.896-12.829 40.665-23.274 82.191-31.044 123.428-.459 2.434.313 4.938 2.064 6.689 1.42 1.421 3.334 2.199 5.306 2.199.46 0 .923-.042 1.383-.129 132.27-24.812 238.839-71.925 304.948-107.079 3.657-1.945 5.045-6.486 3.101-10.144-1.946-3.655-6.486-5.045-10.144-3.1z"/><path d="m46.76 356.249c.821.288 1.659.425 2.482.425 3.097 0 5.994-1.933 7.077-5.02 13.742-39.178 28.624-74.274 42.82-104.35 6.214 2.175 12.805 3.324 19.42 3.324 32.26 0 58.505-26.194 58.505-58.391 0-18.238-8.62-35.378-22.916-46.344 9.965-15.947 17.691-27.089 21.812-32.848 15.565 6.419 41.132 19.835 69.398 39.874 3.381 2.396 8.061 1.6 10.456-1.78 2.396-3.379 1.599-8.061-1.78-10.456-29.838-21.154-56.537-35.124-73.355-41.919-.392-41.52 15.574-71.325 22.412-82.16 20.576 8.162 96.132 41.559 173.395 118.649 29.682 29.614 56.039 62.117 78.341 96.604 1.436 2.22 3.845 3.429 6.305 3.429 1.396 0 2.807-.389 4.065-1.203 3.479-2.249 4.475-6.893 2.226-10.37-22.878-35.379-49.908-68.714-80.342-99.079-91.068-90.862-180.613-122.893-184.381-124.213-3.032-1.061-6.406-.073-8.387 2.459-1.246 1.593-30.051 39.188-28.568 98.682-4.893 6.669-20.482 28.59-40.889 64.011-22.35 38.795-54.838 101.709-82.691 181.116-1.371 3.909.687 8.189 4.595 9.56zm90.927-182.896c2.956-5.135 5.815-9.988 8.557-14.554 9.889 8.173 15.82 20.423 15.82 33.439 0 23.926-19.517 43.391-43.505 43.391-4.436 0-8.744-.652-12.877-1.93 11.714-23.949 22.745-44.261 32.005-60.346z"/><path d="m86.333 368.158c0 32.196 26.245 58.391 58.505 58.391s58.505-26.194 58.505-58.391-26.245-58.391-58.505-58.391-58.505 26.194-58.505 58.391zm58.505-43.391c23.988 0 43.505 19.465 43.505 43.391s-19.517 43.391-43.505 43.391-43.505-19.465-43.505-43.391 19.517-43.391 43.505-43.391z"/><path d="m317.809 289.923c0-25.728-20.971-46.659-46.747-46.659s-46.746 20.932-46.746 46.659 20.97 46.658 46.746 46.658 46.747-20.93 46.747-46.658zm-46.747 31.658c-17.505 0-31.746-14.202-31.746-31.658 0-17.457 14.241-31.659 31.746-31.659 17.506 0 31.747 14.202 31.747 31.659 0 17.456-14.241 31.658-31.747 31.658z"/><path d="m212.573 200.744c4.143 0 7.5-3.357 7.5-7.5 0-17.984-6.886-33.813-7.179-34.479-1.67-3.788-6.088-5.5-9.874-3.838-3.788 1.662-5.513 6.084-3.857 9.876.06.135 5.91 13.704 5.91 28.44 0 4.143 3.358 7.501 7.5 7.501z"/><path d="m195.483 285.26c0-14.735 5.852-28.306 5.911-28.44 1.662-3.788-.057-8.208-3.843-9.877-3.791-1.669-8.217.049-9.889 3.838-.293.665-7.18 16.496-7.18 34.479 0 4.143 3.357 7.5 7.5 7.5s7.501-3.357 7.501-7.5z"/><path d="m272.195 363.762c-.135.06-13.608 5.896-28.512 5.896-4.143 0-7.5 3.357-7.5 7.5s3.357 7.5 7.5 7.5c18.015 0 33.873-6.868 34.539-7.16 3.793-1.665 5.519-6.089 3.854-9.882-1.663-3.791-6.086-5.516-9.881-3.854z"/><path d="m68.221 434.38c0 4.143 3.359 7.501 7.503 7.501s7.503-3.359 7.503-7.501c0-4.143-3.359-7.501-7.503-7.501s-7.503 3.358-7.503 7.501z"/><path d="m131.387 285.26c0-4.143-3.359-7.501-7.503-7.501s-7.503 3.359-7.503 7.501c0 4.143 3.359 7.501 7.503 7.501s7.503-3.358 7.503-7.501z"/><path d="m363.696 324.701c0-4.143-3.359-7.501-7.503-7.501s-7.503 3.359-7.503 7.501c0 4.143 3.359 7.501 7.503 7.501s7.503-3.359 7.503-7.501z"/></g></g></svg>